# xmcd
#
# Track frame offsets:
#	150
#	22237
#	40924
#	63936
#	84406
#	102284
#	123323
#	142427
#	163692
#	185330
#	202900
#	221791
#	248455
#
# Disc length: 3552 seconds
# Revision: 0
# Processed by: cddbd v1.5.2PL0 Copyright (c) Steve Scherf et al.
# Submitted via: dBpowerAMP V12.0
#
DISCID=b90dde0d
DTITLE=Otis Taylor - Otis Taylor Collection
DYEAR=2014
DGENRE=Blues
TTITLE0=Little Willie
TTITLE1=Ten Million Slaves
TTITLE2=Nasty Letter
TTITLE3=Hey Joe
TTITLE4=The Devil's Gonna Lie
TTITLE5=Huckleberry Blues
TTITLE6=Blue Rain In Africa
TTITLE7=Hookers In the Street
TTITLE8=Mandan Woman
TTITLE9=Ran So Hard the Sun Went Down
TTITLE10=Romans Had Their Way
TTITLE11=Looking For Some Heat
TTITLE12=Buy Myself Some Freedom
EXTD=
EXTT0=
EXTT1=
EXTT2=
EXTT3=
EXTT4=
EXTT5=
EXTT6=
EXTT7=
EXTT8=
EXTT9=
EXTT10=
EXTT11=
EXTT12=
PLAYORDER=
